# xmcd
#
# Track frame offsets:
#	150
#	15787
#	34927
#	50157
#	64147
#	81387
#	97075
#	114582
#	132095
#	146825
#	165465
#
# Disc length: 2399 seconds
#
# Revision: 0
# Processed by: cddbd v1.5.2PL0 Copyright (c) Steve Scherf et al.
# Submitted via: EasyCDDAExtractor 10.0.5.1
#
DISCID=96095d0b
DTITLE=강승모 - 무정 블루스
DYEAR=1984
DGENRE=Blues
TTITLE0=무정 블루스
TTITLE1=눈물의 재회
TTITLE2=첫사랑의 모습
TTITLE3=사랑의 빛깔
TTITLE4=당신이 깨우 새벽
TTITLE5=그대를 사랑해요
TTITLE6=꽃동네
TTITLE7=어쩌면
TTITLE8=겨울새
TTITLE9=시골집
TTITLE10=주인 잃은 방패연
EXTD=
EXTT0=
EXTT1=
EXTT2=
EXTT3=
EXTT4=
EXTT5=
EXTT6=
EXTT7=
EXTT8=
EXTT9=
EXTT10=
PLAYORDER=
